# xmcd
#
# Track frame offsets:
# 150
# 16478
# 28379
# 45330
# 62668
# 74523
# 88203
# 104691
# 114533
# 136433
# 147634
# 159973
#
# Disc length: 2342 seconds
#
#
# Revision: 0
# Processed by: cddbd v1.5.1PL0 Copyright (c) Steve Scherf et al.
# Submitted via: FreeRIP 2.942 
#
DISCID=b209240c
DTITLE=Duduca e Dalvan - Mulher Maravilha
DYEAR=1977
DGENRE=Sertaneja
TTITLE0=Mulher Maravilha
TTITLE1=Imagem Santa
TTITLE2=Orfão de Pais Vivos
TTITLE3=Choro a Semana Inteira
TTITLE4=Pranto de Um Homem
TTITLE5=Eu, Ela e a Praia
TTITLE6=Cale-se Para Sempre
TTITLE7=Metade da Cama
TTITLE8=Berrante de Ouro
TTITLE9=Meu Ultimo Adeus
TTITLE10=Minha Pobre Mae Querida
TTITLE11=Ava Maria Para Mim e Para Ela
EXTD=Retirado de Disco Vinil
EXTT0=
EXTT1=
EXTT2=
EXTT3=
EXTT4=
EXTT5=
EXTT6=
EXTT7=
EXTT8=
EXTT9=
EXTT10=
EXTT11=
PLAYORDER=
